<?xml version="1.0" encoding="utf-8"?>
<!-- Generator: Adobe Illustrator 24.0.0, SVG Export Plug-In . SVG Version: 6.00 Build 0)  -->
<svg version="1.1" id="Capa_1" xmlns="http://www.w3.org/2000/svg" xmlns:xlink="http://www.w3.org/1999/xlink" x="0px" y="0px"
	 viewBox="0 0 1280 800" style="enable-background:new 0 0 1280 800;" xml:space="preserve">
<style type="text/css">
	.st0{fill:#0FECE2;}
	.st1{fill:#FFFFFF;}
</style>
<g>
	<rect x="157.5" y="150.5" class="st0" width="953" height="503"/>
	<path d="M1110,151v502H158V151H1110 M1111,150H157v504h954V150L1111,150z"/>
</g>
<g>
	<g>
		<path class="st1" d="M370.5,379l-23.8,14.06l23.83,13.92l0.01,12.58l-46.09-26.48l46.05-26.76L370.5,379z"/>
		<path class="st1" d="M395.67,385.83l-0.21,2.59l1.22-1.66l19.64-21.11l10.8-0.01l-21.65,22.91l22.49,29.5l-10.66,0.01
			l-17.95-24.18l-3.67,3.53l0.02,20.66l-8.5,0.01l-0.04-52.42l8.5-0.01L395.67,385.83z"/>
		<path class="st1" d="M456.58,391.9c0-3.6,0.69-7.02,2.08-10.26c1.39-3.24,3.31-6.11,5.75-8.61c2.45-2.5,5.28-4.46,8.49-5.88
			c3.21-1.42,6.69-2.13,10.44-2.13c3.65,0,7.09,0.7,10.33,2.12c3.24,1.41,6.11,3.37,8.61,5.86c2.5,2.49,4.44,5.36,5.84,8.6
			c1.39,3.24,2.09,6.66,2.1,10.26c0,3.7-0.69,7.15-2.08,10.37c-1.39,3.22-3.34,6.06-5.86,8.54c-2.52,2.47-5.39,4.4-8.6,5.77
			c-3.22,1.37-6.67,2.06-10.37,2.06c-3.7,0-7.15-0.68-10.37-2.04c-3.22-1.37-6.05-3.26-8.5-5.68c-2.45-2.42-4.37-5.25-5.77-8.49
			C457.28,399.14,456.58,395.65,456.58,391.9z M465.22,391.83c0,2.64,0.47,5.09,1.41,7.34c0.94,2.26,2.25,4.24,3.93,5.94
			c1.68,1.7,3.64,3.03,5.87,3.99c2.23,0.96,4.62,1.44,7.16,1.43c2.54,0,4.91-0.48,7.09-1.45c2.18-0.96,4.08-2.29,5.69-4
			c1.61-1.7,2.88-3.69,3.81-5.94s1.4-4.68,1.4-7.27c0-2.64-0.48-5.09-1.45-7.34c-0.96-2.25-2.26-4.25-3.89-5.97
			c-1.63-1.73-3.56-3.07-5.76-4.03c-2.21-0.96-4.59-1.44-7.13-1.43c-2.54,0-4.92,0.5-7.13,1.48c-2.21,0.99-4.14,2.33-5.79,4.04
			c-1.65,1.71-2.94,3.7-3.85,5.98C465.67,386.87,465.22,389.28,465.22,391.83z"/>
		<path class="st1" d="M558.25,400.9l-19.39-35.34l10.3-0.01l14.78,28.21l-2.59,0.15l14.59-28.38l10.3-0.01l-19.63,35.37l0.01,17.06
			l-8.35,0.01L558.25,400.9z"/>
		<path class="st1" d="M612.62,417.92l23.21-54.59h0.5l23.23,54.56l-9.57,0.01l-16.45-41.46l6.04-3.96l-18.69,45.45L612.62,417.92z
			 M627.3,398.47l17.86-0.01l2.89,7.05l-23.33,0.02L627.3,398.47z"/>
		<path class="st1" d="M710.07,365.72l9.72-0.01l13.06,37.14l-1.44-0.57l10.06-25.78l3.9,11.37l-14.3,32.34L710.07,365.72z
			 M735.63,365.7l8.35-0.01l14.43,36.35l-1.66-0.29l11.92-36.08l9-0.01l-20.48,54.45L735.63,365.7z"/>
		<path class="st1" d="M810.58,365.35l34.78-0.03l0.01,8.06l-26.35,0.02l0.01,13.97l23.47-0.02l0.01,8.06l-23.47,0.02l0.01,14.26
			l27.36-0.02l0.01,8.06l-35.78,0.03L810.58,365.35z"/>
		<path class="st1" d="M895.32,365.29c5.33,0,9.54,1.07,12.64,3.23c3.1,2.16,4.65,5.47,4.65,9.93c0,2.98-0.69,5.51-2.08,7.6
			c-1.39,2.09-3.3,3.7-5.72,4.83c-2.42,1.13-5.27,1.72-8.53,1.77l-1.23-4.39c3.84,0.05,7.26,0.66,10.26,1.83
			c3,1.17,5.4,2.83,7.2,4.96c1.8,2.13,2.7,4.69,2.71,7.67c0,2.69-0.5,4.98-1.51,6.88c-1.01,1.9-2.35,3.45-4.03,4.65
			c-1.68,1.2-3.59,2.08-5.72,2.63c-2.14,0.55-4.31,0.83-6.51,0.83l-16.42,0.01l-0.04-52.42L895.32,365.29z M896.71,387.61
			c2.5,0,4.33-0.73,5.51-2.2c1.17-1.46,1.76-3.21,1.76-5.22c0-2.3-0.75-4.02-2.24-5.15c-1.49-1.13-3.5-1.69-6.05-1.69l-6.26,0
			l0.01,14.26L896.71,387.61z M897.01,409.92c1.78,0,3.38-0.27,4.82-0.79s2.59-1.32,3.45-2.38c0.86-1.06,1.29-2.4,1.29-4.03
			c0-1.82-0.51-3.24-1.52-4.25c-1.01-1.01-2.28-1.73-3.82-2.16c-1.54-0.43-3.14-0.65-4.82-0.64l-6.98,0l0.01,14.26L897.01,409.92z"
			/>
		<path class="st1" d="M928.33,406.45l23.7-13.95l-23.72-13.92l-0.01-12.69l46.09,26.59l-46.05,26.66L928.33,406.45z"/>
	</g>
</g>
<g>
	<rect x="-43" y="102" class="st1" width="11" height="1"/>
	<polygon points="-32,102 -43,102 -43,103 -32,103 -32,102 	"/>
</g>
</svg>
